<svg xmlns="http://www.w3.org/2000/svg" width="400" height="107.527"><path d="M240 1.371c-1.656.718-4.075 2.323-5.376 3.569l-2.366 2.264V.86H114.45l-.236 14.209-.236 14.208-4.836-13.993-4.837-13.994-8.604-.244-8.605-.244-6.344 18.087-6.343 18.086-10.108.007-10.107.007v-6.021h19.784V18.925H54.194v-5.162h23.225V.86H29.247v18.065H16.344V.86H0v49.893h16.344V30.968h12.903v19.785h57.331l.797-3.226.797-3.226h14.624l.802 3.247.802 3.247 13.391-.236 13.392-.236.246-8.388.246-8.387h3.649c5.662 0 7.472 1.757 7.472 7.253 0 2.517.242 5.785.537 7.264l.538 2.688h17.176l-.606-2.366c-.333-1.301-.908-5.635-1.278-9.631-.613-6.608-.911-7.478-3.292-9.605-2.613-2.335-2.615-2.343-.877-3.915 2.36-2.136 4.146-5.762 4.146-8.419 0-1.985.326-2.193 3.441-2.193h3.441v36.129h17.204V14.624h7.742v36.129h41.29v-6.129l3.656 2.592c8.953 6.346 25.627 5.835 33.118-1.015l1.936-1.77v6.322h17.204V30.968h12.903v19.785h17.205V.86h-17.205v18.065h-12.903V.86h-17.204v6.089l-1.936-1.858C263.819.088 247.724-1.974 240 1.371m112.116.713c-26.518 6.431-41.253 42.941-20.525 50.857 8.077 3.084 14.598.131 21.151-9.58 4.393-6.51 8.224-9.444 11.128-8.523 5.83 1.851.053 11.744-12.886 22.067l-3.854 3.075 2.367 3.343c5 7.065 4.637 6.791 7.209 5.43 4.842-2.561 16.308-14.409 19.206-19.847 13.153-24.678-18.79-38.435-32.989-14.207-6.614 11.286-11.232 5.599-5.212-6.418 7.631-15.232 29.596-19.046 42.292-7.343 12.62 11.633 10.17 27.691-6.397 41.92-9.003 7.733-13.45 13.748-15.808 21.381-4.997 16.18-19.418 14.145-21.643-3.054-1.254-9.696-.706-9.041-7.326-8.751l-5.818.254.092 6.454c.466 32.604 37.17 40.464 46.719 10.005 1.848-5.894 2.323-6.526 12.071-16.029 11.614-11.322 13.014-13.175 16.042-21.218 10.939-29.064-15.018-57.286-45.819-49.816m-95.458 12.602c1.337 1.051 2.267 2.64 2.267 3.871 0 2.012.22 2.088 6.021 2.088h6.022v9.463h-11.05l-.995 3.017c-2.186 6.623-11.49 6.591-14.265-.048-5.071-12.139 3.415-25.144 12-18.391m-114.354.429c3.33 3.33.447 6.39-6.021 6.39h-4.67v-7.742h4.67c3.098 0 5.124.455 6.021 1.352m85.024 1.014c-.364 1.301-.661 5.462-.661 9.247s.297 7.947.661 9.248l.662 2.365h-19.818v-6.021h17.204V18.925h-17.204v-5.162h19.818l-.662 2.366M96.072 32.527c-4.462.358-4.552.157-2.728-6.07 2.242-7.652 2.248-7.653 4.257-.594l1.82 6.395-3.349.269m87.768 25.64c-.338.338-.614 11.591-.614 25.007v24.392l15.599-.235 15.599-.234 2.25-6.452 2.251-6.451 9.175-.244 9.175-.243 1.767 4.724c.972 2.599 2.015 5.708 2.316 6.91l.549 2.186h15.549c17.055 0 21.148-.956 24.229-5.658l1.397-2.132 2.29 2.722c7.147 8.494 27.796 6.64 32.324-2.903 4.717-9.94.022-16.596-14.295-20.263-7.528-1.929-12.081-4.297-12.507-6.504-1.881-9.771 15.991-11.05 18.897-1.352 1.519 5.071 8.266 5.041 7.756-.035-1.941-19.332-35.689-17.308-34.333 2.059.534 7.63 2.865 9.338 18.801 13.772 8.786 2.445 11.661 6.671 7.314 10.755-6.258 5.879-18.098 3.088-20.184-4.757-.433-1.631-1.306-2.573-2.55-2.755-1.185-.173-2.331-1.326-3.064-3.082-.645-1.543-2.477-3.834-4.072-5.09-1.595-1.257-2.41-2.289-1.812-2.294 3.895-.035 5.84-11.141 2.818-16.097-2.977-4.883-5.778-5.703-20.877-6.115l-13.531-.368-.233 17.865-.233 17.865-6.515-17.548-6.515-17.547h-8.34l-7.84 21.075-7.841 21.075-8.341.246-8.341.246-.23-21.321-.23-21.321-3.472-.256c-1.91-.141-3.749.021-4.086.358m88.853 9.561c1.357 1.726 1.712 3.041 1.334 4.935-.891 4.455-2.335 5.158-11.261 5.485l-8.142.298v-13.07h8.109c7.811 0 8.178.087 9.96 2.352m-44.084 18.118c-7.477.317-7.124 1.254-3.434-9.111l3.139-8.815 3.157 8.836 3.158 8.835-6.02.255m43.109.266c3.167 1.104 4.411 3.019 4.411 6.791 0 6.023-3.18 7.742-14.322 7.742h-7.183V85.161h7.183c3.951 0 8.411.428 9.911.951" fill-rule="evenodd"/></svg>